<?xml version="1.0" standalone="no"?>
<!DOCTYPE svg PUBLIC "-//W3C//DTD SVG 20010904//EN"
 "http://www.w3.org/TR/2001/REC-SVG-20010904/DTD/svg10.dtd">
<svg version="1.0" xmlns="http://www.w3.org/2000/svg"
 width="115.000000pt" height="115.000000pt" viewBox="0 0 115.000000 115.000000"
 preserveAspectRatio="xMidYMid meet">
<metadata>
Created by potrace 1.11, written by Peter Selinger 2001-2013
</metadata>
<g transform="translate(0.000000,115.000000) scale(0.100000,-0.100000)"
fill="#000000" stroke="none">
<path d="M615 946 c-158 -52 -333 -145 -490 -261 -103 -76 -101 -72 -88 -173
6 -48 18 -100 27 -117 9 -16 16 -38 16 -47 0 -10 4 -18 9 -18 5 0 12 -11 15
-25 4 -14 11 -25 16 -25 6 0 10 -7 10 -15 0 -8 5 -15 10 -15 6 0 14 -10 19
-23 12 -31 163 -132 236 -158 75 -27 199 -36 274 -19 136 29 281 132 347 246
15 27 31 51 35 54 3 3 11 15 18 28 12 22 14 33 27 133 10 82 -26 276 -49 262
-8 -5 -7 -8 1 -11 10 -3 10 -7 0 -20 -10 -12 -10 -14 0 -8 6 4 12 3 12 -3 0
-17 -22 -24 -31 -10 -5 8 -9 9 -9 3 0 -6 -22 -12 -52 -13 -125 -4 -300 -43
-403 -91 -88 -40 -125 -53 -131 -47 -3 3 18 13 47 22 67 23 216 159 198 182
-10 11 -8 12 7 7 10 -4 16 -3 11 1 -4 5 3 19 15 32 26 28 31 50 12 57 -8 3
-14 16 -14 30 0 14 -7 31 -15 39 -11 12 -12 17 -2 20 35 15 -17 3 -78 -17z
m-235 -390 c0 -2 -7 -7 -16 -10 -8 -3 -12 -2 -9 4 6 10 25 14 25 6z"/>
</g>
</svg>
